<svg width="168" height="35" viewBox="0 0 168 35" fill="none" xmlns="http://www.w3.org/2000/svg">
<g clip-path="url(#clip0_314_10)">
<path d="M29.8398 16.1745C30.0314 16.5078 30.1322 16.8855 30.1322 17.27C30.1322 17.6545 30.0314 18.0322 29.8398 18.3655L25.531 25.7989C25.3385 26.1308 25.0622 26.4063 24.7298 26.5979C24.3975 26.7894 24.0206 26.8904 23.637 26.8906H15.0656C14.6846 26.8877 14.3109 26.7855 13.9815 26.594C13.652 26.4026 13.3782 26.1285 13.187 25.7989L8.87818 18.3655C8.68663 18.0322 8.58582 17.6545 8.58582 17.27C8.58582 16.8855 8.68663 16.5078 8.87818 16.1745L11.2583 12.0701L16.5546 21.1275C16.6418 21.2825 16.7691 21.4113 16.9232 21.5002C17.0772 21.5891 17.2524 21.6349 17.4302 21.6328H21.2877C21.4656 21.6349 21.6408 21.5891 21.7948 21.5002C21.9489 21.4113 22.0762 21.2825 22.1634 21.1275L24.0921 17.7599C24.1795 17.6086 24.2255 17.437 24.2255 17.2623C24.2255 17.0876 24.1795 16.916 24.0921 16.7647L15.3973 1.72045C15.0956 1.19867 14.662 0.765395 14.14 0.464102C13.618 0.16281 13.0259 0.00408612 12.4232 0.0038563L11.644 0.00385633C10.9544 0.00359483 10.2769 0.184921 9.6797 0.529594C9.08244 0.874267 8.58648 1.37014 8.24169 1.96733L0.526707 15.3104C0.181669 15.9072 -3.0135e-08 16.5845 0 17.2739C3.0134e-08 17.9633 0.181669 18.6405 0.526707 19.2373L8.2417 32.5804C8.58697 33.1769 9.08314 33.672 9.68036 34.0159C10.2776 34.3599 10.9548 34.5407 11.644 34.54H27.074C27.7636 34.5403 28.441 34.3589 29.0383 34.0143C29.6355 33.6696 30.1315 33.1737 30.4763 32.5765L38.1913 19.2335C38.5363 18.6366 38.718 17.9594 38.718 17.27C38.718 16.5806 38.5363 15.9034 38.1913 15.3065L30.4763 1.96347C30.1315 1.36628 29.6355 0.870408 29.0383 0.525735C28.441 0.181062 27.7636 -0.000261281 27.074 2.82584e-07L20.5162 5.69234e-07L29.8398 16.1745Z" fill="#475BE8"/>
</g>
<path d="M51.96 25.2C50.96 25.2 50.0267 25.0133 49.16 24.64C48.2933 24.2667 47.5333 23.7533 46.88 23.1C46.2267 22.4333 45.7133 21.6667 45.34 20.8C44.98 19.92 44.8 18.98 44.8 17.98C44.8 16.98 44.98 16.0467 45.34 15.18C45.7133 14.3133 46.22 13.5533 46.86 12.9C47.5133 12.2333 48.2667 11.72 49.12 11.36C49.9867 10.9867 50.92 10.8 51.92 10.8C52.92 10.8 53.8467 10.9867 54.7 11.36C55.5667 11.72 56.3267 12.2333 56.98 12.9C57.6333 13.5533 58.14 14.32 58.5 15.2C58.8733 16.0667 59.06 17 59.06 18C59.06 19 58.8733 19.94 58.5 20.82C58.14 21.6867 57.6333 22.4467 56.98 23.1C56.34 23.7533 55.5867 24.2667 54.72 24.64C53.8667 25.0133 52.9467 25.2 51.96 25.2ZM51.92 23C52.8667 23 53.6933 22.7867 54.4 22.36C55.12 21.9333 55.68 21.3467 56.08 20.6C56.4933 19.84 56.7 18.9667 56.7 17.98C56.7 17.2467 56.58 16.58 56.34 15.98C56.1133 15.3667 55.7867 14.84 55.36 14.4C54.9333 13.9467 54.4267 13.6 53.84 13.36C53.2667 13.12 52.6267 13 51.92 13C50.9867 13 50.16 13.2133 49.44 13.64C48.7333 14.0533 48.1733 14.6333 47.76 15.38C47.36 16.1267 47.16 16.9933 47.16 17.98C47.16 18.7133 47.2733 19.3933 47.5 20.02C47.74 20.6333 48.0667 21.16 48.48 21.6C48.9067 22.04 49.4133 22.3867 50 22.64C50.5867 22.88 51.2267 23 51.92 23ZM66.2389 25.2C65.5056 25.2 64.8522 25.0467 64.2789 24.74C63.7056 24.42 63.2522 23.9867 62.9189 23.44C62.5989 22.8933 62.4389 22.2733 62.4389 21.58V18.82C62.4389 18.1267 62.6056 17.5067 62.9389 16.96C63.2722 16.4133 63.7256 15.9867 64.2989 15.68C64.8722 15.36 65.5189 15.2 66.2389 15.2C67.1056 15.2 67.8856 15.4267 68.5789 15.88C69.2856 16.32 69.8389 16.92 70.2389 17.68C70.6522 18.4267 70.8589 19.2733 70.8589 20.22C70.8589 21.1533 70.6522 22 70.2389 22.76C69.8389 23.5067 69.2856 24.1 68.5789 24.54C67.8856 24.98 67.1056 25.2 66.2389 25.2ZM65.8789 23.12C66.4122 23.12 66.8789 23 67.2789 22.76C67.6922 22.5067 68.0122 22.16 68.2389 21.72C68.4789 21.28 68.5989 20.7733 68.5989 20.2C68.5989 19.6267 68.4789 19.12 68.2389 18.68C68.0122 18.24 67.6922 17.9 67.2789 17.66C66.8789 17.4067 66.4122 17.28 65.8789 17.28C65.3456 17.28 64.8722 17.4067 64.4589 17.66C64.0456 17.9 63.7256 18.24 63.4989 18.68C63.2722 19.12 63.1589 19.6267 63.1589 20.2C63.1589 20.7733 63.2722 21.28 63.4989 21.72C63.7256 22.16 64.0456 22.5067 64.4589 22.76C64.8722 23 65.3456 23.12 65.8789 23.12ZM61.0989 25V10.6H63.2989V17.76L62.9189 20.08L63.2989 22.42V25H61.0989ZM76.7205 25.2C75.8538 25.2 75.0671 24.98 74.3605 24.54C73.6671 24.1 73.1138 23.5067 72.7005 22.76C72.3005 22 72.1005 21.1533 72.1005 20.22C72.1005 19.2733 72.3005 18.4267 72.7005 17.68C73.1138 16.92 73.6671 16.32 74.3605 15.88C75.0671 15.4267 75.8538 15.2 76.7205 15.2C77.4538 15.2 78.1005 15.36 78.6605 15.68C79.2338 15.9867 79.6871 16.4133 80.0205 16.96C80.3538 17.5067 80.5205 18.1267 80.5205 18.82V21.58C80.5205 22.2733 80.3538 22.8933 80.0205 23.44C79.7005 23.9867 79.2538 24.42 78.6805 24.74C78.1071 25.0467 77.4538 25.2 76.7205 25.2ZM77.0805 23.12C77.8938 23.12 78.5471 22.8467 79.0405 22.3C79.5471 21.7533 79.8005 21.0533 79.8005 20.2C79.8005 19.6267 79.6871 19.12 79.4605 18.68C79.2338 18.24 78.9138 17.9 78.5005 17.66C78.1005 17.4067 77.6271 17.28 77.0805 17.28C76.5471 17.28 76.0738 17.4067 75.6605 17.66C75.2605 17.9 74.9405 18.24 74.7005 18.68C74.4738 19.12 74.3605 19.6267 74.3605 20.2C74.3605 20.7733 74.4738 21.28 74.7005 21.72C74.9405 22.16 75.2605 22.5067 75.6605 22.76C76.0738 23 76.5471 23.12 77.0805 23.12ZM79.6605 25V22.42L80.0405 20.08L79.6605 17.76V15.4H81.8605V25H79.6605ZM88.322 25.2C87.4554 25.2 86.6687 24.98 85.962 24.54C85.2687 24.1 84.7154 23.5067 84.302 22.76C83.902 22 83.702 21.1533 83.702 20.22C83.702 19.2733 83.902 18.4267 84.302 17.68C84.7154 16.92 85.2687 16.32 85.962 15.88C86.6687 15.4267 87.4554 15.2 88.322 15.2C89.0554 15.2 89.702 15.36 90.262 15.68C90.8354 15.9867 91.2887 16.4133 91.622 16.96C91.9554 17.5067 92.122 18.1267 92.122 18.82V21.58C92.122 22.2733 91.9554 22.8933 91.622 23.44C91.302 23.9867 90.8554 24.42 90.282 24.74C89.7087 25.0467 89.0554 25.2 88.322 25.2ZM88.682 23.12C89.2287 23.12 89.702 23 90.102 22.76C90.5154 22.5067 90.8354 22.16 91.062 21.72C91.2887 21.28 91.402 20.7733 91.402 20.2C91.402 19.6267 91.2887 19.12 91.062 18.68C90.8354 18.24 90.5154 17.9 90.102 17.66C89.702 17.4067 89.2287 17.28 88.682 17.28C88.1487 17.28 87.6754 17.4067 87.262 17.66C86.862 17.9 86.542 18.24 86.302 18.68C86.0754 19.12 85.962 19.6267 85.962 20.2C85.962 20.7733 86.0754 21.28 86.302 21.72C86.542 22.16 86.862 22.5067 87.262 22.76C87.6754 23 88.1487 23.12 88.682 23.12ZM93.462 25H91.262V22.42L91.642 20.08L91.262 17.76V10.6H93.462V25ZM100.364 25.2C99.4036 25.2 98.5369 24.9867 97.7636 24.56C97.0036 24.12 96.3969 23.52 95.9436 22.76C95.5036 22 95.2836 21.1467 95.2836 20.2C95.2836 19.2533 95.5036 18.4067 95.9436 17.66C96.3836 16.9 96.9769 16.3 97.7236 15.86C98.4836 15.42 99.3236 15.2 100.244 15.2C101.137 15.2 101.924 15.4067 102.604 15.82C103.297 16.2333 103.837 16.8 104.224 17.52C104.624 18.24 104.824 19.06 104.824 19.98C104.824 20.14 104.81 20.3067 104.784 20.48C104.77 20.64 104.744 20.82 104.704 21.02H96.8236V19.22H103.564L102.744 19.94C102.717 19.3533 102.604 18.86 102.404 18.46C102.204 18.06 101.917 17.7533 101.544 17.54C101.184 17.3267 100.737 17.22 100.204 17.22C99.6436 17.22 99.1569 17.34 98.7436 17.58C98.3303 17.82 98.0103 18.16 97.7836 18.6C97.5569 19.0267 97.4436 19.54 97.4436 20.14C97.4436 20.74 97.5636 21.2667 97.8036 21.72C98.0436 22.1733 98.3836 22.5267 98.8236 22.78C99.2636 23.02 99.7703 23.14 100.344 23.14C100.837 23.14 101.29 23.0533 101.704 22.88C102.13 22.7067 102.49 22.4533 102.784 22.12L104.184 23.54C103.717 24.0867 103.15 24.5 102.484 24.78C101.817 25.06 101.11 25.2 100.364 25.2ZM110.607 25.2C109.741 25.2 108.954 24.98 108.247 24.54C107.554 24.1 107.001 23.5067 106.587 22.76C106.187 22 105.987 21.1533 105.987 20.22C105.987 19.2733 106.187 18.4267 106.587 17.68C107.001 16.92 107.554 16.32 108.247 15.88C108.954 15.4267 109.741 15.2 110.607 15.2C111.341 15.2 111.987 15.36 112.547 15.68C113.121 15.9867 113.574 16.4133 113.907 16.96C114.241 17.5067 114.407 18.1267 114.407 18.82V21.58C114.407 22.2733 114.241 22.8933 113.907 23.44C113.587 23.9867 113.141 24.42 112.567 24.74C111.994 25.0467 111.341 25.2 110.607 25.2ZM110.967 23.12C111.781 23.12 112.434 22.8467 112.927 22.3C113.434 21.7533 113.687 21.0533 113.687 20.2C113.687 19.6267 113.574 19.12 113.347 18.68C113.121 18.24 112.801 17.9 112.387 17.66C111.987 17.4067 111.514 17.28 110.967 17.28C110.434 17.28 109.961 17.4067 109.547 17.66C109.147 17.9 108.827 18.24 108.587 18.68C108.361 19.12 108.247 19.6267 108.247 20.2C108.247 20.7733 108.361 21.28 108.587 21.72C108.827 22.16 109.147 22.5067 109.547 22.76C109.961 23 110.434 23.12 110.967 23.12ZM113.547 25V22.42L113.927 20.08L113.547 17.76V15.4H115.747V25H113.547ZM122.009 25V11.4H124.309V25H122.009ZM117.449 13.1V11H128.869V13.1H117.449ZM128.521 25V15.4H130.721V25H128.521ZM130.721 19.66L129.961 19.28C129.961 18.0667 130.227 17.0867 130.761 16.34C131.307 15.58 132.127 15.2 133.221 15.2C133.701 15.2 134.134 15.2867 134.521 15.46C134.907 15.6333 135.267 15.9133 135.601 16.3L134.161 17.78C133.987 17.5933 133.794 17.46 133.581 17.38C133.367 17.3 133.121 17.26 132.841 17.26C132.227 17.26 131.721 17.4533 131.321 17.84C130.921 18.2267 130.721 18.8333 130.721 19.66ZM140.392 25.2C139.526 25.2 138.739 24.98 138.032 24.54C137.339 24.1 136.786 23.5067 136.372 22.76C135.972 22 135.772 21.1533 135.772 20.22C135.772 19.2733 135.972 18.4267 136.372 17.68C136.786 16.92 137.339 16.32 138.032 15.88C138.739 15.4267 139.526 15.2 140.392 15.2C141.126 15.2 141.772 15.36 142.332 15.68C142.906 15.9867 143.359 16.4133 143.692 16.96C144.026 17.5067 144.192 18.1267 144.192 18.82V21.58C144.192 22.2733 144.026 22.8933 143.692 23.44C143.372 23.9867 142.926 24.42 142.352 24.74C141.779 25.0467 141.126 25.2 140.392 25.2ZM140.752 23.12C141.566 23.12 142.219 22.8467 142.712 22.3C143.219 21.7533 143.472 21.0533 143.472 20.2C143.472 19.6267 143.359 19.12 143.132 18.68C142.906 18.24 142.586 17.9 142.172 17.66C141.772 17.4067 141.299 17.28 140.752 17.28C140.219 17.28 139.746 17.4067 139.332 17.66C138.932 17.9 138.612 18.24 138.372 18.68C138.146 19.12 138.032 19.6267 138.032 20.2C138.032 20.7733 138.146 21.28 138.372 21.72C138.612 22.16 138.932 22.5067 139.332 22.76C139.746 23 140.219 23.12 140.752 23.12ZM143.332 25V22.42L143.712 20.08L143.332 17.76V15.4H145.532V25H143.332ZM152.394 25.2C151.447 25.2 150.587 24.98 149.814 24.54C149.054 24.1 148.454 23.5 148.014 22.74C147.574 21.98 147.354 21.1333 147.354 20.2C147.354 19.2533 147.574 18.4067 148.014 17.66C148.454 16.9 149.054 16.3 149.814 15.86C150.587 15.42 151.447 15.2 152.394 15.2C153.141 15.2 153.834 15.3467 154.474 15.64C155.127 15.92 155.681 16.3267 156.134 16.86L154.694 18.32C154.414 17.9867 154.074 17.74 153.674 17.58C153.287 17.4067 152.861 17.32 152.394 17.32C151.847 17.32 151.361 17.4467 150.934 17.7C150.521 17.94 150.194 18.2733 149.954 18.7C149.727 19.1267 149.614 19.6267 149.614 20.2C149.614 20.76 149.727 21.26 149.954 21.7C150.194 22.1267 150.521 22.4667 150.934 22.72C151.361 22.96 151.847 23.08 152.394 23.08C152.861 23.08 153.287 23 153.674 22.84C154.074 22.6667 154.414 22.4133 154.694 22.08L156.134 23.54C155.681 24.0733 155.127 24.4867 154.474 24.78C153.834 25.06 153.141 25.2 152.394 25.2ZM163.82 25L159.76 20.1L163.8 15.4H166.42L161.78 20.68L161.88 19.42L166.62 25H163.82ZM157.72 25V10.6H159.92V25H157.72Z" fill="#11142D"/>
<defs>
<clipPath id="clip0_314_10">
<rect width="39" height="35" fill="white"/>
</clipPath>
</defs>
</svg>
